<svg width="24" height="24" viewBox="0 0 24 24" fill="none" xmlns="http://www.w3.org/2000/svg">
<g clip-path="url(#clip0_35918_1957)">
<path fill-rule="evenodd" clip-rule="evenodd" d="M23.531 19.2939L11.906 18.4502L6.46854 18.7502L1.14354 21.7127C1.08729 21.7502 1.18104 21.7877 1.34979 21.8064L15.1123 23.9814C15.281 24.0002 15.4873 24.0002 15.5435 23.9627L23.7373 19.3877C23.8123 19.3502 23.7185 19.3127 23.531 19.2939Z" fill="black" fill-opacity="0.12549"/>
<path fill-rule="evenodd" clip-rule="evenodd" d="M15.0934 0L4.25586 2.25L0.224609 6.2625V21.4313C0.224609 21.6 0.355859 21.7125 0.543359 21.7313L15.0934 24C15.2621 24.0187 15.4121 23.8687 15.4121 23.7V0.31875C15.4121 0.15 15.2809 0 15.0934 0Z" fill="url(#paint0_linear_35918_1957)"/>
<path fill-rule="evenodd" clip-rule="evenodd" d="M14.9624 0.0185547L14.7749 0.0560547L14.7187 0.0748047V23.9436L14.9624 23.9811V0.0185547ZM14.3249 0.149805L14.2124 0.187305V23.8686L14.4562 23.9061V0.131055L14.3249 0.149805ZM13.7249 23.7748L13.9687 23.8123V0.224805L13.7249 0.281055V23.7748Z" fill="black" fill-opacity="0.12549"/>
<path fill-rule="evenodd" clip-rule="evenodd" d="M15.3934 10.8186L15.4121 1.33105L6.39336 3.0748C5.92461 3.16855 5.53086 3.46855 5.53086 3.9373V7.63105C5.53086 8.0998 5.90586 8.4373 6.37461 8.5498L15.3934 10.8186ZM4.48086 2.2498H4.27461L0.243361 6.2623V6.46855H3.80586C4.18086 6.46855 4.49961 6.16855 4.49961 5.7748V2.2498H4.48086Z" fill="black" fill-opacity="0.25098"/>
<path fill-rule="evenodd" clip-rule="evenodd" d="M18.0935 0.825095L6.1872 3.0751C5.83095 3.1501 5.53095 3.3751 5.53095 3.73135V7.6126C5.53095 7.96884 5.83095 8.21259 6.1872 8.26885L18.0935 10.5563C18.4497 10.6313 18.7497 10.2563 18.7497 9.90009V1.48135C18.7685 1.1251 18.4497 0.750095 18.0935 0.825095Z" fill="url(#paint1_linear_35918_1957)"/>
<path fill-rule="evenodd" clip-rule="evenodd" d="M0.243652 6.2625H3.80615C4.06865 6.2625 4.2749 6.05625 4.2749 5.79375V2.25L0.243652 6.2625Z" fill="url(#paint2_linear_35918_1957)"/>
<path d="M8.5874 7.74365V3.7124H9.4874C9.8999 3.7124 10.1999 3.8249 10.3874 4.0499C10.5937 4.2749 10.6874 4.6124 10.6874 5.0624C10.6874 5.49365 10.5749 5.8124 10.3499 6.05615C10.1249 6.2999 9.8249 6.4124 9.43115 6.4124H9.35615V7.7249H8.5874V7.74365ZM9.3749 4.3124V5.79365H9.4124C9.58115 5.79365 9.7124 5.7374 9.7874 5.60615C9.88115 5.4749 9.91865 5.2874 9.91865 5.04365C9.91865 4.7999 9.88115 4.63115 9.7874 4.4999C9.69365 4.3874 9.5624 4.3124 9.3749 4.3124ZM11.1937 7.74365V3.7124H11.9812C12.5249 3.7124 12.8999 3.8624 13.1437 4.1624C13.3874 4.4624 13.4999 4.9499 13.4999 5.6249C13.4999 6.35615 13.3874 6.88115 13.1437 7.21865C12.9187 7.55615 12.5437 7.7249 12.0374 7.7249H11.1937V7.74365ZM11.9624 7.10615H11.9812C12.2437 7.10615 12.4124 7.0124 12.5249 6.80615C12.6374 6.5999 12.6749 6.24365 12.6749 5.7374C12.6749 5.2124 12.6187 4.85615 12.5249 4.6499C12.4124 4.44365 12.2437 4.3499 11.9812 4.3499H11.9437V7.10615H11.9624ZM14.0249 7.74365V3.7124H15.7124V4.3499H14.8124V5.30615H15.7124V5.9249H14.8124V7.7249H14.0249V7.74365Z" fill="white"/>
<path fill-rule="evenodd" clip-rule="evenodd" d="M8.24962 15.2627L7.55587 16.0689C7.44337 16.1814 7.31212 16.2939 7.18087 16.4064L6.56212 16.9127C6.35587 17.0814 6.13087 17.2314 5.90587 17.3814C5.83087 17.4189 5.60587 17.5689 5.53087 17.5689C5.23087 17.5689 4.93087 17.5502 4.63087 17.5314C4.19962 17.5127 3.76837 17.4939 3.33712 17.4939C2.83087 17.4939 2.26837 17.5127 1.76212 17.6252C1.38712 17.7002 0.880867 17.8689 0.712117 18.2627C0.693367 18.3189 0.674617 18.3939 0.655867 18.4689C0.637116 18.6752 0.674616 18.8627 0.787116 19.0314C0.974616 19.2939 1.29337 19.4439 1.59337 19.5002C2.02462 19.5752 2.56837 19.5002 2.99962 19.4252C3.43087 19.3502 3.88087 19.2377 4.31212 19.0877C4.57462 19.0127 4.81837 18.9002 5.06212 18.7877C5.24962 18.7127 5.41837 18.6377 5.60587 18.5627C5.68087 18.5252 5.81212 18.4689 5.90587 18.4502C6.41212 18.4502 6.95587 18.5252 7.46212 18.6189C8.00587 18.7314 8.54962 18.8627 9.07462 19.0127C9.31837 19.0877 9.86212 19.2002 9.99337 19.4064C10.4059 19.9877 10.8934 20.7564 11.5684 21.0564C12.0746 21.2814 12.6559 21.1127 12.9371 20.6252C13.0121 20.4939 13.0496 20.3439 13.0309 20.1939C12.9371 19.5189 11.8309 19.1252 11.2684 18.8814C11.0996 18.8064 10.9309 18.7502 10.7621 18.6939C10.6871 18.6752 10.6121 18.6377 10.5371 18.6002C10.4809 18.5627 10.4434 18.4877 10.4059 18.4314C10.2184 18.1127 10.0496 17.7939 9.89962 17.4564C9.84337 17.3064 9.78712 17.1377 9.74962 16.9877C9.67462 16.7627 9.61837 16.5189 9.56212 16.2752C9.50587 16.0314 9.37462 15.3752 9.43087 15.1314L9.54337 14.9627C9.61837 14.8314 9.71212 14.7002 9.78712 14.5877C10.0121 14.2314 10.2184 13.8564 10.4059 13.4814C10.6309 13.0502 10.8934 12.4877 10.9496 12.0002C11.0246 11.3814 10.8184 11.0064 10.2184 10.8002C9.97462 10.7252 9.73087 10.7064 9.48712 10.8189C8.86837 11.1189 8.68087 12.1127 8.60587 12.7502C8.54962 13.2377 8.54962 13.7439 8.54962 14.2314V14.7002C8.54962 14.7564 8.54962 14.8314 8.53087 14.8689C8.51212 14.9064 8.49337 14.9627 8.45587 15.0002C8.38087 15.0939 8.30587 15.1689 8.24962 15.2627ZM9.43087 13.4252C9.46837 12.8064 9.54337 12.1314 9.73087 11.7752C9.76837 11.7002 9.89962 11.6064 9.99337 11.6252C10.0496 11.6439 10.0496 11.7939 10.0496 11.8314C10.0496 12.1689 9.84337 12.6189 9.69337 12.9002C9.59962 13.0689 9.50587 13.2564 9.43087 13.4252ZM3.58087 18.3752C3.11212 18.5064 2.62462 18.6189 2.17462 18.6189C2.00587 18.6189 1.83712 18.6189 1.68712 18.5814C1.66837 18.5814 1.64962 18.5627 1.61212 18.5627C1.68712 18.5252 1.78087 18.5064 1.81837 18.4877C2.02462 18.4314 2.26837 18.4127 2.47462 18.3939C2.75587 18.3752 3.03712 18.3564 3.31837 18.3564C3.39337 18.3752 3.48712 18.3752 3.58087 18.3752ZM9.26212 18.1877C9.05587 18.1314 8.86837 18.0752 8.66212 18.0189C8.21212 17.8877 7.74337 17.7939 7.27462 17.7189C7.16212 17.7002 7.06837 17.7002 6.95587 17.6814L7.12462 17.5502C7.40587 17.3627 7.70587 17.0814 7.94962 16.8377C8.17462 16.6127 8.39962 16.3877 8.60587 16.1439C8.73712 16.8752 8.96212 17.5314 9.26212 18.1877ZM11.5121 19.9877C11.5309 20.0064 11.5684 20.0064 11.5871 20.0252C11.6809 20.0627 11.9246 20.1939 12.0371 20.2877H11.9996C11.8496 20.3064 11.6434 20.1189 11.5121 19.9877Z" fill="url(#paint3_linear_35918_1957)"/>
<path fill-rule="evenodd" clip-rule="evenodd" d="M10.7434 19.4062C10.9309 19.6687 11.7184 20.9062 12.2622 20.4375C12.5434 20.1937 11.8497 19.875 11.6809 19.8C11.3997 19.6687 11.0434 19.5 10.7434 19.4062ZM9.73092 18.5812C9.29967 17.7 8.88717 16.7812 8.81217 15.5812L8.51217 15.9C8.15592 16.275 7.44342 17.0625 6.99342 17.3437L6.33717 17.8312C6.50592 17.8875 7.03092 17.925 7.25592 17.9437C8.28717 18.1125 8.81217 18.3187 9.73092 18.5812ZM1.74343 18.2625C0.655925 18.5062 1.34967 19.3875 4.10592 18.4687C4.23717 18.4312 4.34967 18.375 4.49967 18.3375C4.64967 18.2812 4.78092 18.2625 4.87467 18.1687C4.12467 18.1125 2.51217 18.0937 1.74343 18.2625ZM9.14967 14.325C9.31842 14.1562 9.74967 13.3312 9.91842 13.0312C10.8559 11.175 9.80592 11.175 9.52467 11.6625C9.16842 12.2437 9.14967 13.6312 9.14967 14.325ZM10.1059 11.0437C10.5184 11.1937 10.7247 11.4187 10.6684 11.9812C10.5372 13.05 9.20592 14.9437 9.16842 15.0562C9.01842 15.525 9.46842 17.1375 9.63717 17.5687C9.78717 17.9625 9.97467 18.2625 10.1622 18.5812C10.3684 18.9375 10.4809 18.8812 11.1372 19.1437C11.6247 19.35 13.0684 19.8562 12.6934 20.5312C12.5247 20.85 12.0934 21.0562 11.6434 20.85C11.0434 20.5687 10.5559 19.8187 10.1809 19.275C9.97467 18.9937 9.46842 18.9 9.13092 18.7875C8.28717 18.525 6.80592 18.1875 5.86842 18.2062C5.71842 18.2062 4.66842 18.6937 4.21842 18.8437C3.56217 19.05 2.36217 19.3687 1.63092 19.2375C1.23717 19.1812 0.843424 18.9187 0.880924 18.4687C0.993423 17.4187 4.57467 17.7937 5.51217 17.8125C5.92467 17.8125 7.44342 16.5375 7.74342 16.2375L8.43717 15.4125C8.81217 14.8875 8.77467 15.0187 8.77467 14.2312C8.77467 13.7625 8.79342 13.2375 8.83092 12.7687C8.92467 12.0187 9.20592 10.725 10.1059 11.0437Z" fill="white"/>
</g>
<defs>
<linearGradient id="paint0_linear_35918_1957" x1="15.4121" y1="0" x2="0.224609" y2="0" gradientUnits="userSpaceOnUse">
<stop stop-color="#D74A4B"/>
<stop offset="1" stop-color="#891719"/>
</linearGradient>
<linearGradient id="paint1_linear_35918_1957" x1="18.7505" y1="0.81543" x2="5.53095" y2="0.81543" gradientUnits="userSpaceOnUse">
<stop stop-color="#E15355"/>
<stop offset="1" stop-color="#CD1F26"/>
</linearGradient>
<linearGradient id="paint2_linear_35918_1957" x1="4.2749" y1="2.25" x2="0.243652" y2="2.25" gradientUnits="userSpaceOnUse">
<stop stop-color="#E15355"/>
<stop offset="1" stop-color="#CD1F26"/>
</linearGradient>
<linearGradient id="paint3_linear_35918_1957" x1="13.0356" y1="10.7393" x2="0.651262" y2="10.7393" gradientUnits="userSpaceOnUse">
<stop stop-color="#D74A4B"/>
<stop offset="1" stop-color="#891719"/>
</linearGradient>
<clipPath id="clip0_35918_1957">
<rect width="24" height="24" fill="white" transform="matrix(-1 0 0 1 24 0)"/>
</clipPath>
</defs>
</svg>
