<svg width="28" height="28" viewBox="0 0 28 28" fill="none" xmlns="http://www.w3.org/2000/svg">
<circle cx="14" cy="14" r="14" fill="#FFF4E9"/>
<g clip-path="url(#clip0_36197_3894)">
<path d="M14 6C14.5531 6 15 6.44687 15 7V8.08437C17.5125 8.50312 19.4969 10.4875 19.9156 13H21C21.5531 13 22 13.4469 22 14C22 14.5531 21.5531 15 21 15H19.9156C19.4969 17.5125 17.5125 19.4969 15 19.9156V21C15 21.5531 14.5531 22 14 22C13.4469 22 13 21.5531 13 21V19.9156C10.4875 19.4969 8.50312 17.5125 8.08437 15H7C6.44687 15 6 14.5531 6 14C6 13.4469 6.44687 13 7 13H8.08437C8.50312 10.4875 10.4875 8.50312 13 8.08437V7C13 6.44687 13.4469 6 14 6ZM10 14C10 16.2094 11.7906 18 14 18C16.2094 18 18 16.2094 18 14C18 11.7906 16.2094 10 14 10C11.7906 10 10 11.7906 10 14ZM14 16.5C12.6188 16.5 11.5 15.3813 11.5 14C11.5 12.6188 12.6188 11.5 14 11.5C15.3813 11.5 16.5 12.6188 16.5 14C16.5 15.3813 15.3813 16.5 14 16.5Z" fill="#FF8E21"/>
</g>
<defs>
<clipPath id="clip0_36197_3894">
<rect width="16" height="16" fill="white" transform="translate(6 6)"/>
</clipPath>
</defs>
</svg>
