<svg width="30" height="30" viewBox="0 0 30 30" fill="none" xmlns="http://www.w3.org/2000/svg">
<rect x="0.356201" y="0.232422" width="28.9293" height="28.9293" rx="5.42424" fill="#FF8E21"/>
<path d="M10.6007 11.6836C10.6007 11.1844 11.0054 10.7796 11.5047 10.7796C12.004 10.7796 12.4087 11.1844 12.4087 11.6836C12.4087 12.1829 12.004 12.5877 11.5047 12.5877C11.0054 12.5877 10.6007 12.1829 10.6007 11.6836ZM11.5047 9.57422C10.3397 9.57422 9.39526 10.5186 9.39526 11.6836C9.39526 12.8487 10.3397 13.7931 11.5047 13.7931C12.6697 13.7931 13.6141 12.8487 13.6141 11.6836C13.6141 10.5186 12.6697 9.57422 11.5047 9.57422ZM14.8195 12.2863H19.6411V11.081H14.8195V12.2863ZM17.2303 17.7106C17.2303 17.2113 17.635 16.8065 18.1343 16.8065C18.6336 16.8065 19.0384 17.2113 19.0384 17.7106C19.0384 18.2099 18.6336 18.6146 18.1343 18.6146C17.635 18.6146 17.2303 18.2099 17.2303 17.7106ZM18.1343 15.6012C16.9693 15.6012 16.0249 16.5456 16.0249 17.7106C16.0249 18.8756 16.9693 19.82 18.1343 19.82C19.2993 19.82 20.2437 18.8756 20.2437 17.7106C20.2437 16.5456 19.2993 15.6012 18.1343 15.6012ZM9.99796 17.1079V18.3133H14.8195V17.1079H9.99796Z" fill="#EFF4FB"/>
</svg>
