<svg width="49" height="50" viewBox="0 0 49 50" fill="none" xmlns="http://www.w3.org/2000/svg">
<path d="M0.5 25C0.5 11.7452 11.2452 1 24.5 1C37.7548 1 48.5 11.7452 48.5 25C48.5 38.2548 37.7548 49 24.5 49C11.2452 49 0.5 38.2548 0.5 25Z" stroke="#FF8E21"/>
<path d="M24.5001 18.6213C26.453 18.6213 27.7704 19.4649 28.5215 20.1698L31.4566 17.304C29.6539 15.6284 27.3081 14.6 24.5001 14.6C20.4326 14.6 16.9197 16.9342 15.2095 20.3315L18.5721 22.9431C19.4157 20.4355 21.7499 18.6213 24.5001 18.6213Z" fill="#EA4335"/>
<path d="M34.484 25.2311C34.484 24.376 34.4147 23.752 34.2644 23.1049H24.5V26.9644H30.2316C30.116 27.9235 29.492 29.368 28.1053 30.3386L31.3871 32.8809C33.3516 31.0666 34.484 28.3973 34.484 25.2311Z" fill="#4285F4"/>
<path d="M18.5837 27.0569C18.3641 26.4098 18.237 25.7164 18.237 25C18.237 24.2835 18.3641 23.5902 18.5721 22.9431L15.2094 20.3315C14.5045 21.7413 14.1001 23.3244 14.1001 25C14.1001 26.6755 14.5045 28.2587 15.2094 29.6684L18.5837 27.0569Z" fill="#FBBC05"/>
<path d="M24.5003 35.4C27.3083 35.4 29.6656 34.4756 31.3874 32.8809L28.1056 30.3387C27.2274 30.9511 26.0487 31.3787 24.5003 31.3787C21.7501 31.3787 19.4159 29.5644 18.5839 27.0569L15.2212 29.6684C16.9314 33.0658 20.4327 35.4 24.5003 35.4Z" fill="#34A853"/>
</svg>
