<svg width="25" height="24" viewBox="0 0 25 24" fill="none" xmlns="http://www.w3.org/2000/svg">
<path fill-rule="evenodd" clip-rule="evenodd" d="M22.0315 10.8049L21.25 10.1797V19.2193C21.25 20.7381 20.0188 21.9693 18.5 21.9693H6.50003C4.98125 21.9693 3.75003 20.7381 3.75003 19.2193V10.1797L2.96855 10.8049C2.64511 11.0637 2.17314 11.0112 1.91438 10.6878C1.65562 10.3643 1.70806 9.89238 2.03151 9.63362L10.7821 2.63314C11.7864 1.82965 13.2136 1.82965 14.2179 2.63313L22.9685 9.63362C23.292 9.89238 23.3444 10.3643 23.0857 10.6878C22.8269 11.0112 22.3549 11.0637 22.0315 10.8049ZM13.5 17.22C13.5 16.6677 13.0523 16.22 12.5 16.22C11.9477 16.22 11.5 16.6677 11.5 17.22V18.22C11.5 18.7723 11.9477 19.22 12.5 19.22C13.0523 19.22 13.5 18.7723 13.5 18.22V17.22Z" fill="#FF8E21"/>
</svg>
