<svg width="19" height="20" viewBox="0 0 19 20" fill="none" xmlns="http://www.w3.org/2000/svg">
<path fill-rule="evenodd" clip-rule="evenodd" d="M4.5 0.25H4.75V19.75H4.5C2.42893 19.75 0.75 18.0711 0.75 16V4C0.75 1.92893 2.42893 0.25 4.5 0.25ZM14.5 19.75H6.25V0.25H14.5C16.5711 0.25 18.25 1.92893 18.25 4V16C18.25 18.0711 16.5711 19.75 14.5 19.75ZM9.5 4C8.9477 4 8.5 4.44772 8.5 5C8.5 5.55228 8.9477 6 9.5 6H13.5C14.0523 6 14.5 5.55228 14.5 5C14.5 4.44772 14.0523 4 13.5 4H9.5ZM9.5 8C8.9477 8 8.5 8.4477 8.5 9C8.5 9.5523 8.9477 10 9.5 10H11.5C12.0523 10 12.5 9.5523 12.5 9C12.5 8.4477 12.0523 8 11.5 8H9.5Z" fill="#FF8E21"/>
</svg>
