<svg width="24" height="25" viewBox="0 0 24 25" fill="none" xmlns="http://www.w3.org/2000/svg">
<path d="M20 6V4C20 3.60218 19.842 3.22064 19.5607 2.93934C19.2794 2.65804 18.8978 2.5 18.5 2.5H11.5C11.1022 2.5 10.7206 2.65804 10.4393 2.93934C10.158 3.22064 10 3.60218 10 4V6H20Z" fill="#E69F6C"/>
<path d="M7.5 5.5H6C5.17157 5.5 4.5 6.17157 4.5 7V17.5C4.5 18.3284 5.17157 19 6 19H7.5C8.32843 19 9 18.3284 9 17.5V7C9 6.17157 8.32843 5.5 7.5 5.5Z" fill="#E69F6C"/>
<path d="M20 7H10V17.5C10 18.8785 8.8785 20 7.5 20H6C4.6215 20 3.5 18.8785 3.5 17.5V7.0505C2.9354 7.16575 2.42795 7.4725 2.06351 7.91885C1.69906 8.36521 1.5 8.92376 1.5 9.5V20C1.5 20.663 1.76339 21.2989 2.23223 21.7678C2.70107 22.2366 3.33696 22.5 4 22.5H20C20.663 22.5 21.2989 22.2366 21.7678 21.7678C22.2366 21.2989 22.5 20.663 22.5 20V9.5C22.5 8.83696 22.2366 8.20107 21.7678 7.73223C21.2989 7.26339 20.663 7 20 7ZM13.5 18.5C13.5 18.6326 13.4473 18.7598 13.3536 18.8536C13.2598 18.9473 13.1326 19 13 19H12C11.8674 19 11.7402 18.9473 11.6464 18.8536C11.5527 18.7598 11.5 18.6326 11.5 18.5V17.5C11.5 17.3674 11.5527 17.2402 11.6464 17.1464C11.7402 17.0527 11.8674 17 12 17H13C13.1326 17 13.2598 17.0527 13.3536 17.1464C13.4473 17.2402 13.5 17.3674 13.5 17.5V18.5ZM13.5 15C13.5 15.1326 13.4473 15.2598 13.3536 15.3536C13.2598 15.4473 13.1326 15.5 13 15.5H12C11.8674 15.5 11.7402 15.4473 11.6464 15.3536C11.5527 15.2598 11.5 15.1326 11.5 15V14C11.5 13.8674 11.5527 13.7402 11.6464 13.6464C11.7402 13.5527 11.8674 13.5 12 13.5H13C13.1326 13.5 13.2598 13.5527 13.3536 13.6464C13.4473 13.7402 13.5 13.8674 13.5 14V15ZM17 18.5C17 18.6326 16.9473 18.7598 16.8536 18.8536C16.7598 18.9473 16.6326 19 16.5 19H15.5C15.3674 19 15.2402 18.9473 15.1464 18.8536C15.0527 18.7598 15 18.6326 15 18.5V17.5C15 17.3674 15.0527 17.2402 15.1464 17.1464C15.2402 17.0527 15.3674 17 15.5 17H16.5C16.6326 17 16.7598 17.0527 16.8536 17.1464C16.9473 17.2402 17 17.3674 17 17.5V18.5ZM17 15C17 15.1326 16.9473 15.2598 16.8536 15.3536C16.7598 15.4473 16.6326 15.5 16.5 15.5H15.5C15.3674 15.5 15.2402 15.4473 15.1464 15.3536C15.0527 15.2598 15 15.1326 15 15V14C15 13.8674 15.0527 13.7402 15.1464 13.6464C15.2402 13.5527 15.3674 13.5 15.5 13.5H16.5C16.6326 13.5 16.7598 13.5527 16.8536 13.6464C16.9473 13.7402 17 13.8674 17 14V15ZM20.5 18.5C20.5 18.6326 20.4473 18.7598 20.3536 18.8536C20.2598 18.9473 20.1326 19 20 19H19C18.8674 19 18.7402 18.9473 18.6464 18.8536C18.5527 18.7598 18.5 18.6326 18.5 18.5V17.5C18.5 17.3674 18.5527 17.2402 18.6464 17.1464C18.7402 17.0527 18.8674 17 19 17H20C20.1326 17 20.2598 17.0527 20.3536 17.1464C20.4473 17.2402 20.5 17.3674 20.5 17.5V18.5ZM20.5 15C20.5 15.1326 20.4473 15.2598 20.3536 15.3536C20.2598 15.4473 20.1326 15.5 20 15.5H19C18.8674 15.5 18.7402 15.4473 18.6464 15.3536C18.5527 15.2598 18.5 15.1326 18.5 15V14C18.5 13.8674 18.5527 13.7402 18.6464 13.6464C18.7402 13.5527 18.8674 13.5 19 13.5H20C20.1326 13.5 20.2598 13.5527 20.3536 13.6464C20.4473 13.7402 20.5 13.8674 20.5 14V15ZM20.5 11.5C20.5 11.6326 20.4473 11.7598 20.3536 11.8536C20.2598 11.9473 20.1326 12 20 12H12C11.8674 12 11.7402 11.9473 11.6464 11.8536C11.5527 11.7598 11.5 11.6326 11.5 11.5V9.5C11.5 9.36739 11.5527 9.24021 11.6464 9.14645C11.7402 9.05268 11.8674 9 12 9H20C20.1326 9 20.2598 9.05268 20.3536 9.14645C20.4473 9.24021 20.5 9.36739 20.5 9.5V11.5Z" fill="#E69F6C"/>
</svg>
