<svg width="20" height="21" viewBox="0 0 20 21" fill="none" xmlns="http://www.w3.org/2000/svg">
<path d="M17.9658 9.44899L16.8324 8.13232C16.6158 7.88232 16.4408 7.41566 16.4408 7.08232V5.66566C16.4408 4.78232 15.7158 4.05732 14.8324 4.05732H13.4158C13.0908 4.05732 12.6158 3.88232 12.3658 3.66566L11.0491 2.53232C10.4741 2.04066 9.53242 2.04066 8.94909 2.53232L7.64076 3.67399C7.39076 3.88232 6.91576 4.05732 6.59076 4.05732H5.14909C4.26576 4.05732 3.54076 4.78232 3.54076 5.66566V7.09066C3.54076 7.41566 3.36576 7.88232 3.15742 8.13232L2.03242 9.45732C1.54909 10.0323 1.54909 10.9657 2.03242 11.5407L3.15742 12.8657C3.36576 13.1157 3.54076 13.5823 3.54076 13.9073V15.3323C3.54076 16.2157 4.26576 16.9407 5.14909 16.9407H6.59076C6.91576 16.9407 7.39076 17.1157 7.64076 17.3323L8.95742 18.4657C9.53242 18.9573 10.4741 18.9573 11.0574 18.4657L12.3741 17.3323C12.6241 17.1157 13.0908 16.9407 13.4241 16.9407H14.8408C15.7241 16.9407 16.4491 16.2157 16.4491 15.3323V13.9157C16.4491 13.5907 16.6241 13.1157 16.8408 12.8657L17.9741 11.549C18.4574 10.974 18.4574 10.024 17.9658 9.44899ZM13.4658 8.92399L9.44076 12.949C9.32357 13.066 9.16471 13.1318 8.99909 13.1318C8.83346 13.1318 8.67461 13.066 8.55742 12.949L6.54076 10.9323C6.29909 10.6907 6.29909 10.2907 6.54076 10.049C6.78242 9.80732 7.18242 9.80732 7.42409 10.049L8.99909 11.624L12.5824 8.04066C12.8241 7.79899 13.2241 7.79899 13.4658 8.04066C13.7074 8.28232 13.7074 8.68232 13.4658 8.92399Z" fill="#E69F6C"/>
</svg>
