<svg width="16" height="17" viewBox="0 0 16 17" fill="none" xmlns="http://www.w3.org/2000/svg">
<path d="M10.9956 4.73019C10.6853 4.41634 10.1795 4.41238 9.8643 4.72137L3.95096 10.5657L1.38037 7.90454C1.07378 7.585 0.566209 7.57451 0.246696 7.8811C-0.072851 8.18769 -0.0833393 8.69527 0.223254 9.01478L0.227386 9.01905L3.36166 12.2672C3.43592 12.3429 3.52448 12.4032 3.6222 12.4445C3.71992 12.4858 3.82487 12.5073 3.93095 12.5077H3.93977C4.15001 12.507 4.35157 12.4238 4.50104 12.276L10.9884 5.86154C11.3019 5.55071 11.3051 5.04501 10.9956 4.73019ZM8.17248 12.2672C8.24655 12.3427 8.33485 12.4029 8.43228 12.4442C8.52971 12.4855 8.63435 12.5071 8.74017 12.5077H8.74899C8.95922 12.507 9.16078 12.4238 9.31026 12.276L15.7977 5.86154C16.0917 5.53043 16.0617 5.02365 15.7306 4.7296C15.4304 4.46301 14.9794 4.45951 14.6751 4.72137L8.7642 10.5657L8.55332 10.3468C8.24677 10.0273 7.73919 10.0168 7.41965 10.3234C7.1001 10.6299 7.08957 11.1375 7.39617 11.457L7.40034 11.4613L8.17248 12.2672Z" fill="#34A853"/>
</svg>
