<svg width="49" height="50" viewBox="0 0 49 50" fill="none" xmlns="http://www.w3.org/2000/svg">
<path d="M0.5 25C0.5 11.7452 11.2452 1 24.5 1C37.7548 1 48.5 11.7452 48.5 25C48.5 38.2548 37.7548 49 24.5 49C11.2452 49 0.5 38.2548 0.5 25Z" stroke="#FF8E21"/>
<path fill-rule="evenodd" clip-rule="evenodd" d="M29.7669 10.6C30.0182 12.3066 29.3235 13.9785 28.4072 15.1614C27.4268 16.4303 25.7369 17.4116 24.0996 17.3604C23.8007 15.7265 24.566 14.043 25.4972 12.9113C26.5186 11.6623 28.2692 10.7041 29.7669 10.6ZM34.6854 34.6216C35.5295 33.328 35.8448 32.6754 36.5 31.2149C31.7343 29.4026 30.9707 22.6273 35.6871 20.0269C34.2485 18.2228 32.227 17.177 30.3187 17.177C28.9437 17.177 28.0016 17.5358 27.1452 17.862C26.4315 18.1339 25.7772 18.383 24.9815 18.383C24.1216 18.383 23.3601 18.11 22.5628 17.8241C21.6866 17.51 20.7672 17.1803 19.6262 17.1803C17.4848 17.1803 15.2054 18.4888 13.7602 20.7257C11.7288 23.8763 12.0753 29.7991 15.3696 34.8446C16.5471 36.6504 18.1203 38.6792 20.178 38.6973C21.0318 38.7058 21.6 38.451 22.2148 38.1752C22.9186 37.8596 23.6834 37.5165 25.0078 37.5095C26.3399 37.5015 27.0927 37.8487 27.7871 38.169C28.3862 38.4453 28.9417 38.7016 29.7883 38.6924C31.8476 38.6759 33.5079 36.4273 34.6854 34.6216Z" fill="#212E38"/>
</svg>
