<svg width="24" height="25" viewBox="0 0 24 25" fill="none" xmlns="http://www.w3.org/2000/svg">
<path d="M11.05 15.45L9.2 17.3C8.81 17.69 8.19 17.69 7.79 17.31C7.68 17.2 7.57 17.1 7.46 16.99C6.43 15.95 5.5 14.86 4.67 13.72C3.85 12.58 3.19 11.44 2.71 10.31C2.24 9.17 2 8.08 2 7.04C2 6.36 2.12 5.71 2.36 5.11C2.6 4.5 2.98 3.94 3.51 3.44C4.15 2.81 4.85 2.5 5.59 2.5C5.87 2.5 6.15 2.56 6.4 2.68C6.66 2.8 6.89 2.98 7.07 3.24L9.39 6.51C9.57 6.76 9.7 6.99 9.79 7.21C9.88 7.42 9.93 7.63 9.93 7.82C9.93 8.06 9.86 8.3 9.72 8.53C9.59 8.76 9.4 9 9.16 9.24L8.4 10.03C8.29 10.14 8.24 10.27 8.24 10.43C8.24 10.51 8.25 10.58 8.27 10.66C8.3 10.74 8.33 10.8 8.35 10.86C8.53 11.19 8.84 11.62 9.28 12.14C9.73 12.66 10.21 13.19 10.73 13.72C10.83 13.82 10.94 13.92 11.04 14.02C11.44 14.41 11.45 15.05 11.05 15.45Z" fill="#E69F6C"/>
<path d="M21.2723 19.6964L21.2724 19.6964C21.2984 19.6444 21.3196 19.5895 21.35 19.5083C21.4304 19.282 21.4696 19.0501 21.4696 18.83C21.4696 18.6294 21.4283 18.4452 21.3487 18.2441C21.2808 18.0936 21.1676 17.9545 20.975 17.8211L20.9701 17.8178L20.9702 17.8177L17.6644 15.4707C17.4347 15.3148 17.2373 15.2052 17.0603 15.1328C16.8921 15.064 16.7563 15.04 16.6396 15.04C16.4921 15.04 16.3511 15.0789 16.1896 15.1771L16.1755 15.1857L16.1609 15.1933C15.9922 15.2814 15.7929 15.4338 15.5632 15.6636L15.5608 15.6659L15.5608 15.6659L14.8018 16.4149C14.6034 16.6127 14.3486 16.73 14.0396 16.73C13.9109 16.73 13.7671 16.7156 13.614 16.6582L13.6032 16.6542L13.5926 16.6496C13.5545 16.6332 13.5189 16.6169 13.4916 16.6044C13.4889 16.6032 13.4863 16.602 13.4838 16.6008C13.4522 16.5863 13.4357 16.579 13.4239 16.5743L13.4002 16.5648L13.3776 16.553C13.2373 16.4795 13.0857 16.3888 12.9249 16.2819L10.347 18.8598C10.5737 19.0361 10.8073 19.2098 11.0459 19.3873C12.158 20.1967 13.2746 20.8367 14.3856 21.3101C15.4854 21.7787 16.5087 22 17.4496 22C18.0752 22 18.6512 21.8825 19.1812 21.6669L19.2718 21.63H19.2749C19.7823 21.4106 20.2414 21.0756 20.6691 20.6043L21.2723 19.6964ZM21.2723 19.6964L21.2675 19.7065M21.2723 19.6964L21.2675 19.7065M21.2675 19.7065C21.1174 20.0244 20.9243 20.3226 20.6693 20.604L21.2675 19.7065Z" fill="#E69F6C" stroke="#E69F6C"/>
</svg>
