<svg width="32" height="32" viewBox="0 0 32 32" fill="none" xmlns="http://www.w3.org/2000/svg">
<rect width="32" height="32" rx="4" fill="#FFF4E9"/>
<path d="M13.7121 4.05811C15.1624 4.22573 16.5078 4.92525 17.5156 6.02601M6.9176 9.54168V9.33787C6.9176 8.47814 7.16051 7.6379 7.61533 6.92451C8.6388 5.31909 10.2725 4.28165 12.0709 4.06246M6.9176 12.3901V11.1823M7.81521 15.987C6.67676 15.7093 5.83179 14.6827 5.83179 13.4588C5.83179 12.8871 6.29529 12.4236 6.86707 12.4236H7.81526M19.8166 14.3889C19.5142 15.1788 18.838 15.7837 18.0043 15.987" stroke="#FDA149" stroke-width="0.7" stroke-miterlimit="10" stroke-linecap="round" stroke-linejoin="round"/>
<path d="M8.40339 18.1261C8.02065 17.584 7.81518 16.9366 7.8152 16.273V12.422C8.10175 12.422 8.35623 12.2269 8.44905 11.9562L8.88845 10.2421C9.08317 9.67386 9.72991 9.40245 10.2719 9.66167L10.336 9.69237L10.8529 9.89037C12.1714 10.3955 13.63 10.3955 14.9484 9.89037L15.4653 9.69237L15.551 9.65206C15.8893 9.49292 16.2671 9.53952 16.5503 9.73498M18.0042 13.1138V16.273C18.0043 16.731 17.9064 17.1837 17.7171 17.6007C17.5279 18.0178 17.2516 18.3895 16.9069 18.6911L15.9073 19.5657M8.04114 22.6145L8.34128 22.5365L9.60705 22.1642M4 24.0255C4.05016 23.9861 4.10791 23.9414 4.14878 23.9121C4.82495 23.4273 5.64128 23.2137 6.44931 23.0184" stroke="#FDA149" stroke-width="0.7" stroke-miterlimit="10" stroke-linecap="round" stroke-linejoin="round"/>
<path d="M4.14868 23.9121L4.49274 24.0841C4.9328 24.3042 5.30289 24.6424 5.56155 25.061C5.8202 25.4795 5.95721 25.9618 5.95721 26.4538V27.2968" stroke="#FDA149" stroke-width="0.7" stroke-miterlimit="10" stroke-linecap="round" stroke-linejoin="round"/>
<path d="M24.4766 18.3223C25.0363 18.3223 25.49 17.868 25.49 17.3076C25.49 16.7472 25.0363 16.293 24.4766 16.293C23.9169 16.293 23.4631 16.7472 23.4631 17.3076C23.4631 17.868 23.9169 18.3223 24.4766 18.3223Z" stroke="#FDA149" stroke-width="0.7" stroke-miterlimit="10" stroke-linecap="round" stroke-linejoin="round"/>
<path d="M23.0492 20.7603C23.4559 20.7603 23.7857 20.4302 23.7857 20.023C23.7857 19.6158 23.4559 19.2856 23.0492 19.2856C22.6425 19.2856 22.3127 19.6158 22.3127 20.023C22.3127 20.4302 22.6425 20.7603 23.0492 20.7603Z" stroke="#FDA149" stroke-width="0.7" stroke-miterlimit="10" stroke-linecap="round" stroke-linejoin="round"/>
<path d="M26.9925 9.74078C27.1905 9.48462 27.2976 9.16986 27.2969 8.84613C27.2969 8.40152 27.0992 8.00331 26.7873 7.73458C26.8718 7.5122 26.915 7.27625 26.9147 7.03835C26.9147 6.12972 26.2957 5.36585 25.4576 5.14624C25.298 5.10437 25.1337 5.08301 24.9687 5.08267C24.9154 5.0018 24.8571 4.92438 24.7941 4.85088C24.3507 4.3301 23.6908 4 22.9539 4C22.5856 3.99946 22.2222 4.08355 21.8916 4.24577C21.6196 4.08447 21.3092 3.99957 20.9931 4C20.1689 4 19.4765 4.56546 19.2812 5.33069C18.2463 5.28063 17.2952 5.98047 17.062 7.02756C16.9359 7.59124 17.0417 8.15219 17.315 8.6126C16.9819 8.79883 16.7257 9.12124 16.6366 9.52394C16.5169 10.0592 16.7234 10.5913 17.1246 10.9124C16.8828 12.0036 17.5697 13.085 18.6595 13.3289C18.8752 13.3773 19.0974 13.3899 19.3172 13.3663C19.5584 14.3692 20.4606 15.1142 21.5355 15.1142C22.1887 15.1142 22.7779 14.8395 23.1938 14.399C23.4767 14.5584 23.796 14.642 24.1207 14.6416C24.9814 14.6416 25.7079 14.0653 25.9366 13.2766L25.9371 13.2753C25.9783 13.1322 26.0026 12.9848 26.0095 12.836C26.0203 12.8315 26.0311 12.8266 26.0415 12.8216C26.7829 12.4762 27.2969 11.7236 27.2969 10.8506C27.2969 10.4452 27.1861 10.0655 26.9925 9.74078Z" stroke="#FDA149" stroke-width="0.7" stroke-miterlimit="10" stroke-linecap="round" stroke-linejoin="round"/>
<path d="M25.1841 8.29606C25.3359 8.68169 25.4136 9.0925 25.4131 9.50693C25.4131 11.3307 23.9349 12.8093 22.1114 12.8093C20.2878 12.8093 18.8096 11.3308 18.8096 9.50693C18.8096 7.68307 20.2878 6.20459 22.1114 6.20459C22.9091 6.20459 23.6408 6.48757 24.2116 6.95867" stroke="#FDA149" stroke-width="0.7" stroke-miterlimit="10" stroke-linecap="round" stroke-linejoin="round"/>
<path d="M21.2351 8.67143C21.2351 8.62995 21.2379 8.58912 21.2435 8.54918C21.3038 8.11718 21.6789 7.78601 22.1295 7.7951C22.5853 7.80429 22.9629 8.1694 22.9865 8.62479C23.0127 9.12945 22.6108 9.54795 22.1114 9.54795V10.2772M13.4945 16.2928C13.3392 16.3719 13.1674 16.4132 12.9931 16.4132C12.8188 16.4132 12.647 16.3719 12.4917 16.2928M13.95 18.1991H12.0362M11.8062 11.9982C11.2997 11.6847 10.4786 11.6847 9.97217 11.9982M14.1801 12.4009C14.6865 12.7145 15.5076 12.7145 16.0141 12.4009M15.0971 14.7114V13.8978M10.8891 14.7114V13.8978M17.5608 23.5109L23.4404 27.2967V27.0147C23.3762 25.6722 22.7895 24.714 21.6707 23.9119C20.8001 23.2878 19.6971 23.113 18.6787 22.8483C18.3787 22.7704 17.7069 22.5844 17.2206 22.4524M16.0762 27.2967L15.2353 26.6789" stroke="#FDA149" stroke-width="0.7" stroke-miterlimit="10" stroke-linecap="round" stroke-linejoin="round"/>
<path d="M21.6688 23.9134L21.3266 24.0845C20.8436 24.3259 20.4459 24.7092 20.187 25.1831M16.1024 22.472C15.9619 22.1546 15.9112 21.8047 15.9558 21.4605C15.9864 21.2227 15.9881 20.9472 15.9526 20.6159L15.883 19.8385C15.8625 19.6121 15.9081 19.3845 16.0142 19.1834L16.2455 18.7454C16.2665 18.7055 16.2756 18.6603 16.2717 18.6154C16.2679 18.5704 16.2512 18.5274 16.2238 18.4916C16.2047 18.4667 16.1794 18.4468 16.1513 18.4289C15.8539 18.2391 15.4946 18.2952 15.2391 18.4951C15.1433 18.57 15.056 18.6842 15.0065 18.7536C14.7059 19.1748 14.5509 19.4991 14.426 20.1058L14.4236 20.1168C14.3184 20.5997 13.761 20.827 13.3448 20.5614L9.24418 17.9448C8.96743 17.7682 8.60007 17.8498 8.42358 18.127C8.24714 18.4042 8.32843 18.772 8.60518 18.9486L11.9211 21.0645L10.9264 20.4298C10.6497 20.2532 10.2823 20.3348 10.1058 20.612C9.92939 20.8891 10.0107 21.257 10.2874 21.4336L10.5302 21.5885M10.5302 21.5885L11.2821 22.0683M10.5302 21.5885C10.2535 21.4119 9.88613 21.4935 9.70969 21.7707C9.53325 22.0478 9.61449 22.4157 9.89124 22.5923L10.2707 22.8345M10.2707 22.8345L10.7798 23.1594M10.2707 22.8345C9.99385 22.6579 9.62635 22.7394 9.44986 23.0167C9.27343 23.2939 9.35461 23.6617 9.63118 23.8384L11.3013 24.9041C11.6871 25.1503 12.1314 25.2898 12.5888 25.3083C13.0069 25.3251 13.4175 25.4252 13.7965 25.6027M17.658 23.318L15.0856 26.7844C14.9514 26.9654 14.6937 27.0034 14.5131 26.869L13.8103 26.3462C13.6295 26.2117 13.5915 25.9534 13.7258 25.7723L16.2982 22.3059C16.4324 22.1249 16.6901 22.0869 16.8707 22.2213L17.5735 22.7441C17.7543 22.8787 17.7923 23.1369 17.658 23.318Z" stroke="#FDA149" stroke-width="0.7" stroke-miterlimit="10" stroke-linecap="round" stroke-linejoin="round"/>
</svg>
