<svg width="17" height="16" viewBox="0 0 17 16" fill="none" xmlns="http://www.w3.org/2000/svg">
<path fill-rule="evenodd" clip-rule="evenodd" d="M7.69653 0.872279C7.54207 0.806246 7.36473 0.822199 7.22453 0.914739C7.08436 1.00728 7 1.16405 7 1.33203C7 2.7334 6.10397 3.77737 5.12037 4.92331C4.11483 6.09645 3 7.4689 3 9.66537C3 12.703 5.46243 15.1654 8.5 15.1654C11.5375 15.1654 14 12.703 14 9.66537C14 8.9453 13.9915 7.47937 12.5571 5.68635C12.4265 5.52304 12.2079 5.4583 12.0094 5.52407C11.811 5.58981 11.6744 5.7722 11.667 5.98109C11.667 5.98109 11.6529 6.14143 11.6415 6.21559C11.6182 6.36724 11.5767 6.55443 11.5064 6.72563C11.4343 6.90123 11.3485 7.01977 11.2606 7.0839C11.1917 7.13423 11.0871 7.17843 10.8865 7.1365C10.7149 7.10063 10.6283 7.03743 10.5728 6.97217C10.5097 6.89803 10.4525 6.7799 10.4108 6.58485C10.3689 6.38871 10.3497 6.15019 10.3384 5.85939C10.3343 5.75429 10.3311 5.63586 10.3277 5.51122C10.3226 5.31765 10.317 5.10909 10.3069 4.91224C10.2724 4.23752 10.1793 3.45842 9.80553 2.72883C9.4236 1.98326 8.77093 1.33157 7.69653 0.872279ZM8.33147 7.28917C8.31807 7.13277 8.23187 6.9917 8.0988 6.90837C7.9658 6.82497 7.80127 6.80897 7.65467 6.86503C7.01398 7.11023 6.52315 7.69957 6.20355 8.26357C5.88191 8.83117 5.66667 9.4917 5.66667 9.9987C5.66667 10.9334 5.96284 11.7269 6.48183 12.292C7.00173 12.858 7.72013 13.1662 8.5 13.1662C10.1745 13.1662 11.3333 11.4749 11.3333 9.66617C11.3333 9.50217 11.2529 9.34857 11.1181 9.25517C10.9833 9.16177 10.8113 9.14037 10.6578 9.19797C10.1925 9.37243 9.8442 9.38763 9.58567 9.33183C9.3302 9.2767 9.1216 9.14363 8.9468 8.94923C8.58027 8.54163 8.38253 7.8827 8.33147 7.28917Z" fill="white"/>
</svg>
