<svg width="11" height="15" viewBox="0 0 11 15" fill="none" xmlns="http://www.w3.org/2000/svg">
<path fill-rule="evenodd" clip-rule="evenodd" d="M4.69653 0.0402481C4.54207 -0.0257853 4.36473 -0.00983189 4.22453 0.0827081C4.08436 0.175248 4 0.332015 4 0.500001C4 1.90137 3.10397 2.94534 2.12037 4.09127C1.11483 5.26441 0 6.63687 0 8.83333C0 11.8709 2.46243 14.3333 5.5 14.3333C8.53753 14.3333 11 11.8709 11 8.83333C11 8.11327 10.9915 6.64733 9.55713 4.85432C9.42647 4.69101 9.20793 4.62627 9.0094 4.69204C8.811 4.75778 8.6744 4.94017 8.667 5.14906C8.667 5.14906 8.65293 5.3094 8.64153 5.38355C8.6182 5.53521 8.57667 5.7224 8.5064 5.8936C8.43433 6.0692 8.34847 6.18773 8.2606 6.25187C8.19167 6.3022 8.08707 6.3464 7.88647 6.30447C7.71487 6.2686 7.62827 6.2054 7.5728 6.14013C7.50973 6.066 7.45247 5.94787 7.4108 5.75282C7.36887 5.55667 7.34973 5.31816 7.3384 5.02735C7.33427 4.92225 7.33113 4.80383 7.32773 4.67919C7.3226 4.48562 7.317 4.27705 7.30693 4.08021C7.2724 3.40549 7.17933 2.62639 6.80553 1.8968C6.4236 1.15123 5.77093 0.499541 4.69653 0.0402481ZM5.33147 6.45714C5.31807 6.30073 5.23187 6.15967 5.0988 6.07633C4.9658 5.99293 4.80127 5.97693 4.65467 6.033C4.01398 6.2782 3.52315 6.86753 3.20355 7.43153C2.88191 7.99913 2.66667 8.65967 2.66667 9.16667C2.66667 10.1014 2.96284 10.8949 3.48183 11.4599C4.00173 12.026 4.72013 12.3341 5.5 12.3341C7.17447 12.3341 8.33333 10.6429 8.33333 8.83414C8.33333 8.67013 8.25293 8.51653 8.11813 8.42313C7.98333 8.32973 7.81133 8.30833 7.6578 8.36593C7.19253 8.5404 6.8442 8.5556 6.58567 8.4998C6.3302 8.44467 6.1216 8.3116 5.9468 8.1172C5.58027 7.7096 5.38253 7.05067 5.33147 6.45714Z" fill="url(#paint0_linear_36184_3960)"/>
<defs>
<linearGradient id="paint0_linear_36184_3960" x1="5.5" y1="3.46774" x2="5.5" y2="23.1183" gradientUnits="userSpaceOnUse">
<stop stop-color="#FC8C20"/>
<stop offset="1" stop-color="#FFC083"/>
</linearGradient>
</defs>
</svg>
