<svg width="16" height="16" viewBox="0 0 16 16" fill="none" xmlns="http://www.w3.org/2000/svg">
<g id="Frame" clip-path="url(#clip0_1646_6420)">
<g id="Group">
<path id="Vector" d="M12.3669 8.5008C12.3461 6.47327 14.02 5.50297 14.0942 5.45428C13.1541 4.08057 11.6911 3.89161 11.1683 3.87074C9.92438 3.74323 8.73847 4.60339 8.10551 4.60339C7.47488 4.60339 6.49879 3.88813 5.4659 3.90668C4.10725 3.92755 2.85642 4.69729 2.15623 5.91219C0.745422 8.36053 1.79454 11.9867 3.16942 13.9748C3.84178 14.9462 4.64399 16.0371 5.69543 15.9988C6.70861 15.9583 7.09117 15.3427 8.3165 15.3427C9.54183 15.3427 9.88612 15.9988 10.9573 15.9791C12.0481 15.9583 12.7379 14.988 13.4045 14.0142C14.1765 12.8862 14.4942 11.7931 14.5139 11.7386C14.4884 11.7247 12.389 10.9213 12.3669 8.5008ZM10.3521 2.55499C10.9097 1.87915 11.2877 0.937835 11.1845 0C10.3788 0.0324591 9.40619 0.534415 8.82773 1.21142C8.30954 1.81075 7.85859 2.76714 7.97916 3.68642C8.87642 3.75714 9.79454 3.22968 10.3521 2.55499Z" fill="#030104"/>
</g>
</g>
<defs>
<clipPath id="clip0_1646_6420">
<rect width="16" height="16" fill="white"/>
</clipPath>
</defs>
</svg>
