<svg width="17" height="16" viewBox="0 0 17 16" fill="none" xmlns="http://www.w3.org/2000/svg">
<path d="M15.5017 8.15571C15.5017 7.58016 15.454 7.16016 15.3509 6.72461H8.64453V9.32236H12.581C12.5017 9.96793 12.0731 10.9402 11.1207 11.5935L11.1074 11.6804L13.2278 13.2902L13.3747 13.3046C14.7239 12.0835 15.5017 10.2868 15.5017 8.15571Z" fill="#4285F4"/>
<path d="M8.64266 14.9999C10.5712 14.9999 12.1902 14.3776 13.3728 13.3043L11.1188 11.5931C10.5157 12.0054 9.70613 12.2932 8.64266 12.2932C6.75379 12.2932 5.15064 11.0721 4.57916 9.38428L4.49539 9.39125L2.29055 11.0635L2.26172 11.142C3.43631 13.4287 5.849 14.9999 8.64266 14.9999Z" fill="#34A853"/>
<path d="M4.57933 9.38448C4.42854 8.94893 4.34127 8.48223 4.34127 8.00003C4.34127 7.51778 4.42854 7.05113 4.5714 6.61558L4.5674 6.52282L2.33493 4.82373L2.26189 4.85778C1.77778 5.80668 1.5 6.87226 1.5 8.00003C1.5 9.1278 1.77778 10.1933 2.26189 11.1422L4.57933 9.38448Z" fill="#FBBC05"/>
<path d="M8.6427 3.70665C9.98395 3.70665 10.8887 4.27442 11.4046 4.7489L13.4205 2.82C12.1824 1.69222 10.5712 1 8.6427 1C5.84902 1 3.43631 2.5711 2.26172 4.85775L4.57124 6.61555C5.15066 4.92777 6.75382 3.70665 8.6427 3.70665Z" fill="#EB4335"/>
</svg>
