<svg width="69" height="66" viewBox="0 0 69 66" fill="none" xmlns="http://www.w3.org/2000/svg">
<circle cx="7.33335" cy="3.66667" r="3.66667" fill="#6E5782"/>
<circle cx="65.6333" cy="10.2667" r="2.93333" fill="#6E5782"/>
<circle cx="3.66668" cy="48.7667" r="1.83333" fill="#6E5782"/>
<circle cx="1.1" cy="1.1" r="1.1" transform="matrix(1 0 0 -1 38.1333 2.93335)" fill="#6E5782"/>
<circle cx="1.46667" cy="1.46667" r="1.46667" transform="matrix(1 0 0 -1 21.2667 66)" fill="#6E5782"/>
<circle cx="1.1" cy="1.1" r="1.1" transform="matrix(1 0 0 -1 61.6 41.8)" fill="#6E5782"/>
<circle cx="1.1" cy="1.1" r="1.1" transform="matrix(1 0 0 -1 59.4 60.1334)" fill="#6E5782"/>
<circle cx="0.366667" cy="0.366667" r="0.366667" transform="matrix(1 0 0 -1 0 27.8667)" fill="#6E5782"/>
<circle cx="0.366667" cy="0.366667" r="0.366667" transform="matrix(1 0 0 -1 44.3667 63.0667)" fill="#6E5782"/>
</svg>
