<svg width="24" height="24" viewBox="0 0 24 24" fill="none" xmlns="http://www.w3.org/2000/svg">
<path d="M12.1989 11.7997L10.7889 13.2097C10.0089 13.9897 10.0089 15.2598 10.7889 16.0398C11.5689 16.8198 12.8389 16.8198 13.6189 16.0398L15.8389 13.8197C17.3989 12.2597 17.3989 9.72975 15.8389 8.15975C14.2789 6.59975 11.7489 6.59975 10.1789 8.15975L7.75891 10.5797C6.41891 11.9197 6.41891 14.0897 7.75891 15.4297" stroke="#E69F6C" stroke-width="2" stroke-linecap="round" stroke-linejoin="round"/>
<path d="M9 22H15C20 22 22 20 22 15V9C22 4 20 2 15 2H9C4 2 2 4 2 9V15C2 20 4 22 9 22Z" stroke="#E69F6C" stroke-width="2" stroke-linecap="round" stroke-linejoin="round"/>
</svg>
