<svg width="25" height="24" viewBox="0 0 25 24" fill="none" xmlns="http://www.w3.org/2000/svg">
<path d="M22.5 14V10C22.5 6.22876 22.5 4.34315 21.3284 3.17157C20.1569 2 18.2712 2 14.5 2H12.5C8.72876 2 6.84315 2 5.67157 3.17157C4.5 4.34315 4.5 6.22876 4.5 10V14C4.5 17.7712 4.5 19.6569 5.67157 20.8284C6.84315 22 8.72876 22 12.5 22H14.5C18.2712 22 20.1569 22 21.3284 20.8284C22.5 19.6569 22.5 17.7712 22.5 14Z" stroke="#454F5B" stroke-width="1.5"/>
<path d="M5.5 6H2.5M5.5 12H2.5M5.5 18H2.5" stroke="#454F5B" stroke-width="1.5" stroke-linecap="round" stroke-linejoin="round"/>
<path d="M18 7H14M16 11H14" stroke="#454F5B" stroke-width="1.5" stroke-linecap="round" stroke-linejoin="round"/>
<path d="M9.5 22V2" stroke="#454F5B" stroke-width="1.5" stroke-linecap="round" stroke-linejoin="round"/>
</svg>
