<svg width="48" height="48" viewBox="0 0 48 48" fill="none" xmlns="http://www.w3.org/2000/svg">
<rect x="0.5" y="0.5" width="47" height="47" rx="23.5" fill="#FFF0E4"/>
<rect x="0.5" y="0.5" width="47" height="47" rx="23.5" stroke="#E69F6C"/>
<path d="M30.9136 26.748L30.9149 26.7502C31.2252 27.2594 31.2795 27.8584 31.074 28.4037C30.8657 28.9566 30.4375 29.3737 29.8858 29.555L29.8858 29.555L29.883 29.5559C27.9961 30.1881 26.0099 30.5 24.0219 30.5C22.0339 30.5 20.0485 30.1881 18.1629 29.5466L18.1619 29.5463C17.5449 29.3378 17.1038 28.9172 16.9226 28.4114L16.9226 28.4114L16.9212 28.4075C16.7291 27.8851 16.7895 27.3026 17.1205 26.7475C17.1207 26.7471 17.121 26.7467 17.1212 26.7463L18.1297 25.0788L18.1298 25.0788L18.1338 25.0719C18.2695 24.8394 18.3834 24.5281 18.4631 24.2349C18.5427 23.9422 18.6019 23.6169 18.6019 23.35V20.82C18.6019 18.699 19.836 16.8574 21.6246 15.9677L21.7629 15.8989L21.8383 15.764C22.2712 14.9898 23.0855 14.5 23.9919 14.5C24.9125 14.5 25.7058 14.9737 26.1366 15.736L26.2142 15.8733L26.3565 15.9412C28.1801 16.8118 29.4419 18.6708 29.4419 20.82V23.35C29.4419 23.6169 29.5011 23.9421 29.5805 24.2356C29.6603 24.5303 29.7736 24.8417 29.9071 25.0768L29.9069 25.0769L29.9136 25.088L30.9136 26.748Z" fill="#E69F6C" stroke="#E69F6C"/>
<path d="M22.0952 32.6143C22.1457 32.6193 22.1963 32.6239 22.2471 32.6282C22.8286 32.6792 23.423 32.71 24.0197 32.71C24.607 32.71 25.1921 32.6791 25.7642 32.628L25.7642 32.628L25.7671 32.6277C25.8101 32.6237 25.8577 32.6197 25.9083 32.6156C25.4471 33.1572 24.7618 33.5 23.9997 33.5C23.3408 33.5 22.6921 33.2319 22.2395 32.7628L22.2308 32.7538L22.2217 32.7452C22.1779 32.7042 22.1357 32.6604 22.0952 32.6143Z" fill="#E69F6C" stroke="#E69F6C"/>
</svg>
