<svg width="36" height="36" viewBox="0 0 36 36" fill="none" xmlns="http://www.w3.org/2000/svg">
<rect width="36" height="36" rx="18" fill="#FFF4E9"/>
<path d="M10.7501 15C10.7501 10.9959 13.996 7.75 18.0001 7.75C22.0042 7.75 25.2501 10.9959 25.2501 15V20.3074C25.2501 21.627 26.0535 22.8136 27.2786 23.3036C27.6125 23.4372 27.8046 23.7888 27.7366 24.1418C27.6686 24.4949 27.3596 24.75 27.0001 24.75H9.00008C8.64055 24.75 8.3316 24.4949 8.26361 24.1418C8.19562 23.7888 8.38772 23.4372 8.72153 23.3036C9.9467 22.8136 10.7501 21.627 10.7501 20.3074V15Z" fill="#FF8E21"/>
<path d="M14.2175 26C14.94 27.3413 16.3653 28.25 18.0001 28.25C19.6348 28.25 21.0601 27.3413 21.7826 26H14.2175Z" fill="#FF8E21"/>
<path d="M29.4531 0.25C31.7178 0.25 33.5674 2.14548 33.5674 4.5C33.5674 6.85452 31.7178 8.75 29.4531 8.75C27.1886 8.7498 25.3398 6.85439 25.3398 4.5C25.3398 2.14561 27.1886 0.250198 29.4531 0.25Z" fill="#FF4842" stroke="white" stroke-width="0.5"/>
</svg>
