<svg width="24" height="25" viewBox="0 0 24 25" fill="none" xmlns="http://www.w3.org/2000/svg">
<path d="M3.52005 7.23973C4.00634 5.55931 5.42383 4.28835 7.18522 3.95344C10.365 3.34885 13.635 3.34885 16.8148 3.95344C18.5762 4.28835 19.9937 5.55931 20.48 7.23973L20.5282 7.40654C21.1573 9.58027 21.1573 11.8807 20.5282 14.0544L20.48 14.2212C19.9937 15.9017 18.5762 17.1726 16.8148 17.5075C13.635 18.1121 10.365 18.1121 7.18522 17.5075C5.42384 17.1726 4.00634 15.9017 3.52005 14.2212L3.47178 14.0544C2.84274 11.8807 2.84274 9.58027 3.47178 7.40653L3.52005 7.23973Z" fill="#868A9B" fill-opacity="0.1"/>
<path d="M3.47178 14.0544L4.19222 13.846L3.47178 14.0544ZM3.47178 7.40653L2.75134 7.19805H2.75134L3.47178 7.40653ZM20.5282 7.40654L21.2487 7.19806V7.19806L20.5282 7.40654ZM20.5282 14.0544L19.8078 13.846V13.846L20.5282 14.0544ZM16.8148 17.5075L16.6747 16.7707L16.8148 17.5075ZM7.18522 17.5075L7.32531 16.7707L7.18522 17.5075ZM7.18522 3.95344L7.04513 3.21664L7.18522 3.95344ZM16.8148 3.95344L16.9549 3.21664L16.8148 3.95344ZM3.52005 14.2212L2.79961 14.4297H2.79961L3.52005 14.2212ZM20.48 14.2212L21.2004 14.4297L21.2004 14.4297L20.48 14.2212ZM20.48 7.23973L19.7595 7.44822L19.7595 7.44822L20.48 7.23973ZM3.52005 7.23973L4.24049 7.44822L3.52005 7.23973ZM12.75 18.423C12.75 18.0088 12.4142 17.673 12 17.673C11.5858 17.673 11.25 18.0088 11.25 18.423H12.75ZM11.25 21.5C11.25 21.9142 11.5858 22.25 12 22.25C12.4142 22.25 12.75 21.9142 12.75 21.5H11.25ZM9.36386 20.75C8.94964 20.75 8.61386 21.0858 8.61386 21.5C8.61386 21.9142 8.94964 22.25 9.36386 22.25V20.75ZM14.6361 22.25C15.0504 22.25 15.3861 21.9142 15.3861 21.5C15.3861 21.0858 15.0504 20.75 14.6361 20.75V22.25ZM19.7595 7.44822L19.8078 7.61503L21.2487 7.19806L21.2004 7.03125L19.7595 7.44822ZM19.8078 13.846L19.7595 14.0128L21.2004 14.4297L21.2487 14.2629L19.8078 13.846ZM4.24049 14.0128L4.19222 13.846L2.75134 14.2629L2.79961 14.4297L4.24049 14.0128ZM4.19222 7.61502L4.24049 7.44822L2.79961 7.03125L2.75134 7.19805L4.19222 7.61502ZM4.19222 13.846C3.60259 11.8084 3.60259 9.65256 4.19222 7.61502L2.75134 7.19805C2.08289 9.50798 2.08289 11.953 2.75134 14.2629L4.19222 13.846ZM19.8078 7.61502C20.3974 9.65256 20.3974 11.8084 19.8078 13.846L21.2487 14.2629C21.9171 11.953 21.9171 9.50798 21.2487 7.19806L19.8078 7.61502ZM16.6747 16.7707C13.5875 17.3577 10.4125 17.3577 7.32531 16.7707L7.04513 18.2443C10.3175 18.8665 13.6825 18.8665 16.9549 18.2443L16.6747 16.7707ZM7.32531 4.69024C10.4125 4.10325 13.5875 4.10325 16.6747 4.69024L16.9549 3.21664C13.6825 2.59445 10.3175 2.59445 7.04513 3.21664L7.32531 4.69024ZM7.32531 16.7707C5.83267 16.4869 4.64581 15.4134 4.24049 14.0128L2.79961 14.4297C3.36686 16.3899 5.015 17.8583 7.04513 18.2443L7.32531 16.7707ZM16.9549 18.2443C18.985 17.8583 20.6331 16.3899 21.2004 14.4297L19.7595 14.0128C19.3542 15.4134 18.1673 16.4869 16.6747 16.7707L16.9549 18.2443ZM16.6747 4.69024C18.1673 4.97405 19.3542 6.0476 19.7595 7.44822L21.2004 7.03125C20.6331 5.07103 18.985 3.60264 16.9549 3.21664L16.6747 4.69024ZM7.04513 3.21664C5.015 3.60264 3.36686 5.07103 2.79961 7.03125L4.24049 7.44822C4.64581 6.0476 5.83267 4.97405 7.32531 4.69024L7.04513 3.21664ZM11.25 18.423V21.5H12.75V18.423H11.25ZM9.36386 22.25H14.6361V20.75H9.36386V22.25Z" fill="#454F5B"/>
<path d="M8 11.75L10.0588 10.1287C10.4346 9.83272 10.6225 9.68475 10.8303 9.71113C11.0381 9.73752 11.1831 9.92777 11.473 10.3083L12.527 11.6917C12.8169 12.0722 12.9619 12.2625 13.1697 12.2889C13.3775 12.3153 13.5654 12.1673 13.9412 11.8713L16 10.25" stroke="#454F5B" stroke-width="1.5" stroke-linecap="round"/>
</svg>
