<svg width="18" height="20" viewBox="0 0 18 20" fill="none" xmlns="http://www.w3.org/2000/svg">
<g clip-path="url(#clip0_1655_16049)">
<path d="M17.8455 3.93727L14.4565 0.171641C14.3576 0.0617532 14.2234 1.24674e-05 14.0836 0L1.93943 0C0.870047 0 0 0.966719 0 2.15496V17.845C0 19.0333 0.870047 20 1.93943 20H16.0605C17.13 20 18 19.0333 18 17.845V4.35156C18 4.19617 17.9444 4.04714 17.8455 3.93727ZM12.4266 1.17188V5.92055C12.4266 6.46262 12.0297 6.90363 11.5418 6.90363H5.32849C4.84063 6.90363 4.44372 6.46262 4.44372 5.92055V1.17188H12.4266ZM4.44372 18.8281V12.8242C4.44372 12.2822 4.84063 11.8412 5.32849 11.8412H12.6714C13.1593 11.8412 13.5562 12.2822 13.5562 12.8242V18.8281H4.44372ZM16.9453 17.845C16.9453 18.3871 16.5484 18.8281 16.0605 18.8281H14.6109V12.8242C14.6109 11.636 13.7409 10.6693 12.6715 10.6693H5.32849C4.25907 10.6693 3.38903 11.636 3.38903 12.8242V18.8281H1.93943C1.4516 18.8281 1.05469 18.3871 1.05469 17.845V2.15496C1.05469 1.61289 1.4516 1.17188 1.93943 1.17188H3.38903V5.92055C3.38903 7.10879 4.25907 8.07551 5.32849 8.07551H11.5418C12.6112 8.07551 13.4813 7.10879 13.4813 5.92055V1.17188H13.8651L16.9453 4.5943V17.845Z" fill="#757575"/>
<path d="M10.6953 5.56512C10.9865 5.56512 11.2227 5.30278 11.2227 4.97919V3.09637C11.2227 2.77278 10.9865 2.51044 10.6953 2.51044C10.4041 2.51044 10.168 2.77278 10.168 3.09637V4.97919C10.168 5.30278 10.4041 5.56512 10.6953 5.56512Z" fill="#757575"/>
</g>
<defs>
<clipPath id="clip0_1655_16049">
<rect width="18" height="20" fill="white"/>
</clipPath>
</defs>
</svg>
