<svg width="32" height="32" viewBox="0 0 32 32" fill="none" xmlns="http://www.w3.org/2000/svg">
<rect width="32" height="32" rx="8" fill="#FDA44D"/>
<path d="M16 15.0625V11.9375" stroke="white" stroke-width="1.4" stroke-linecap="round" stroke-linejoin="round"/>
<path d="M16 9.4375V8.8125" stroke="white" stroke-width="1.4" stroke-linecap="round" stroke-linejoin="round"/>
<path d="M11.1562 11.1562L10.6875 10.6875" stroke="white" stroke-width="1.4" stroke-linecap="round" stroke-linejoin="round"/>
<path d="M16 17.875C16.6904 17.875 17.25 17.3154 17.25 16.625C17.25 15.9346 16.6904 15.375 16 15.375C15.3096 15.375 14.75 15.9346 14.75 16.625C14.75 17.3154 15.3096 17.875 16 17.875Z" stroke="white" stroke-width="1.4" stroke-miterlimit="10"/>
<path d="M16 9.75C14.6403 9.75 13.311 10.1532 12.1805 10.9086C11.0499 11.6641 10.1687 12.7378 9.64833 13.9941C9.12798 15.2503 8.99183 16.6326 9.2571 17.9662C9.52238 19.2999 10.1772 20.5249 11.1386 21.4864C12.1001 22.4478 13.3251 23.1026 14.6588 23.3679C15.9924 23.6332 17.3747 23.497 18.631 22.9767C19.8872 22.4563 20.9609 21.5751 21.7164 20.4445C22.4718 19.314 22.875 17.9847 22.875 16.625C22.875 14.8016 22.1507 13.053 20.8614 11.7636C19.5721 10.4743 17.8234 9.75 16 9.75Z" stroke="white" stroke-width="1.4" stroke-miterlimit="10"/>
</svg>
