<svg width="17" height="17" viewBox="0 0 17 17" fill="none" xmlns="http://www.w3.org/2000/svg">
<g clip-path="url(#clip0_2681_14748)">
<path d="M8.5 0.5C4.08884 0.5 0.5 4.08884 0.5 8.5C0.5 12.9112 4.08884 16.5 8.5 16.5C12.9112 16.5 16.5 12.9112 16.5 8.5C16.5 4.08884 12.9112 0.5 8.5 0.5ZM12.6634 5.81884L7.49424 11.9727C7.3795 12.1093 7.2111 12.1895 7.0327 12.1923H7.02231C6.84787 12.1922 6.68165 12.1182 6.565 11.9885L4.34962 9.52692C4.19645 9.36448 4.14329 9.13183 4.2107 8.91898C4.27811 8.70614 4.4555 8.54649 4.67425 8.50182C4.89299 8.45716 5.11877 8.53447 5.26423 8.70385L7.00615 10.6393L11.7212 5.02731C11.9412 4.77288 12.3248 4.7423 12.5824 4.95868C12.84 5.17505 12.8761 5.55817 12.6634 5.81884Z" fill="#BABABA"/>
</g>
<defs>
<clipPath id="clip0_2681_14748">
<rect width="16" height="16" fill="white" transform="translate(0.5 0.5)"/>
</clipPath>
</defs>
</svg>
