<svg width="20" height="20" viewBox="0 0 20 20" fill="none" xmlns="http://www.w3.org/2000/svg">
<path d="M17.9658 8.94948L16.8324 7.63281C16.6158 7.38281 16.4408 6.91615 16.4408 6.58281V5.16615C16.4408 4.28281 15.7158 3.55781 14.8324 3.55781H13.4158C13.0908 3.55781 12.6158 3.38281 12.3658 3.16615L11.0491 2.03281C10.4741 1.54115 9.53242 1.54115 8.94909 2.03281L7.64076 3.17448C7.39076 3.38281 6.91576 3.55781 6.59076 3.55781H5.14909C4.26576 3.55781 3.54076 4.28281 3.54076 5.16615V6.59115C3.54076 6.91615 3.36576 7.38281 3.15742 7.63281L2.03242 8.95781C1.54909 9.53281 1.54909 10.4661 2.03242 11.0411L3.15742 12.3661C3.36576 12.6161 3.54076 13.0828 3.54076 13.4078V14.8328C3.54076 15.7161 4.26576 16.4411 5.14909 16.4411H6.59076C6.91576 16.4411 7.39076 16.6161 7.64076 16.8328L8.95742 17.9661C9.53242 18.4578 10.4741 18.4578 11.0574 17.9661L12.3741 16.8328C12.6241 16.6161 13.0908 16.4411 13.4241 16.4411H14.8408C15.7241 16.4411 16.4491 15.7161 16.4491 14.8328V13.4161C16.4491 13.0911 16.6241 12.6161 16.8408 12.3661L17.9741 11.0495C18.4574 10.4745 18.4574 9.52448 17.9658 8.94948ZM13.4658 8.42448L9.44076 12.4495C9.32357 12.5665 9.16471 12.6323 8.99909 12.6323C8.83346 12.6323 8.67461 12.5665 8.55742 12.4495L6.54076 10.4328C6.29909 10.1911 6.29909 9.79115 6.54076 9.54948C6.78242 9.30781 7.18242 9.30781 7.42409 9.54948L8.99909 11.1245L12.5824 7.54115C12.8241 7.29948 13.2241 7.29948 13.4658 7.54115C13.7074 7.78281 13.7074 8.18281 13.4658 8.42448Z" fill="#E69F6C"/>
</svg>
